<?xml version="1.0" encoding="UTF-8" standalone="no"?>
<svg xmlns="http://www.w3.org/2000/svg" height="53px" width="303px" version="1.1" xmlns:xlink="http://www.w3.org/1999/xlink" viewBox="0 0 303 53"><!-- Generator: Sketch 41.2 (35397) - http://www.bohemiancoding.com/sketch -->
 <title>Combined Shape</title>
 <desc>Created with Sketch.</desc>
 <defs>
  <radialGradient id="radialGradient-1" cy="-21.075%" r="115.81%">
   <stop stop-color="#02EEB3" offset="0"/>
   <stop stop-color="#1FD38A" offset=".47397"/>
   <stop stop-color="#40B4C1" offset="1"/>
  </radialGradient>
 </defs>
 <g id="05.00.00-OpenSource" fill-rule="evenodd" fill="none">
  <g id="HD_05.00.00-521Website_OpenSource" fill="url(#radialGradient-1)" transform="translate(-570 -1203)">
   <g id="Body" transform="translate(0 162)">
    <g id="Projects" transform="translate(0 897)">
     <g id="JavaScript-Libraries" transform="translate(550 50)">
      <g id="Project" transform="translate(0 39)">
       <path id="Combined-Shape" d="m45.351 55.646l-25.351 50.704h1.765l39.228-20.445 10.865 20.535h1.765l-26.507-50.794h-1.765zm-4.536 22.899h4.86v-5.086h1.144v5.086h4.861v1.197h-4.861v5.085h-1.144v-5.085h-4.86v-1.197zm31.681 13.75l-14.231-27.474-0.043-0.087h-1.986l15.504 29.37 0.044 0.085h1.399l16.7-27.47v39.821h1.42v-41.806h-2.072l-16.735 27.561zm38.484-27.561h-16.208v41.806h1.42v-18.881h14.228c7.87 0 12.76-4.381 12.76-11.434 0-7.41-4.33-11.491-12.2-11.491zm126.4 0h-14.04v41.806h12.32c5.21 0 9.7-1.67 12.99-4.83 3.83-3.687 5.77-9.094 5.77-16.072 0-18.867-11.91-20.904-17.04-20.904zm72.32 34.116c0 2.88 2.15 4.01 4.59 4.01 1.59 0 4.03-0.49 4.03-2.7 0-2.341-3.1-2.736-6.15-3.585-3.07-0.85-6.18-2.094-6.18-6.16 0-4.43 4-6.554 7.75-6.554 4.32 0 8.29 1.972 8.29 6.979h-4.41c-0.14-2.609-1.91-3.277-4.09-3.277-1.45 0-3.13 0.637-3.13 2.458 0 1.669 0.99 1.881 6.18 3.276 1.51 0.395 6.15 1.396 6.15 6.312 0 3.971-2.99 6.951-8.62 6.951-4.58 0-8.87-2.37-8.81-7.71h4.4zm-181.63-34.116h-1.42v41.806h24.58v-1.48h-23.16v-40.326zm90.39 26.192c0 10.034-4.47 15.124-13.29 15.124-8.81 0-13.29-5.09-13.29-15.124v-26.192h-1.41v26.192c0 10.864 5.08 16.604 14.7 16.604s14.71-5.74 14.71-16.604v-26.192h-1.42v26.192zm84.14 8.289c0 2.795-0.73 7.345-6.9 7.345-3.46 0-6.82-1.98-6.82-6.708v-1.882h4.12v0.971c0 2.099 0.49 3.609 2.64 3.609 2.4 0 2.4-2.03 2.4-3.548v-14.625h4.56v14.838zm-42.96 5.845v-19.551h23.72v-1.485h-23.72v-17.806h25.22v-1.484h-26.64v41.806h26.86v-1.48h-25.44zm-106.27 1.48h1.42v-41.806h-1.42v41.806zm4.27-40.321h14.27v40.321h1.42v-40.321h14.28v-1.485h-29.97v1.485zm-61.448 0h14.788c7.05 0 10.78 3.46 10.78 10.006 0 6.044-4.23 9.949-10.78 9.949h-14.788v-19.955zm140.92 0c7.25 0 15.89 3.369 15.89 19.419 0 14.318-8.81 19.422-17.06 19.422h-11.18v-38.841h12.35z"/>
      </g>
     </g>
    </g>
   </g>
  </g>
 </g>
</svg>
