<?xml version="1.0" encoding="UTF-8" standalone="no"?>
<svg width="60px" height="60px" viewBox="0 0 60 60" version="1.1" xmlns="http://www.w3.org/2000/svg" xmlns:xlink="http://www.w3.org/1999/xlink">
    <!-- Generator: Sketch 41.2 (35397) - http://www.bohemiancoding.com/sketch -->
    <title>Oval 1</title>
    <desc>Created with Sketch.</desc>
    <defs></defs>
    <g id="05.100.00-OpenSource-Amplitude" stroke="none" stroke-width="1" fill="none" fill-rule="evenodd">
        <g id="HD_05.100.00-521Website_OpenSource-Amplitude" transform="translate(-515.000000, -772.000000)">
            <g id="Lead-in">
                <g id="Player" transform="translate(368.000000, 359.000000)">
                    <g id="Controllers/Status/Info" transform="translate(0.000000, 357.000000)">
                        <g id="Controls" transform="translate(114.000000, 56.000000)">
                            <g id="Play/Pause" transform="translate(33.000000, 0.000000)">
                                <g id="Oval-1">
                                    <circle fill="#00A0FF" cx="30" cy="30" r="30"></circle>
                                    <path d="M40.587,16.61 L36.257,16.61 C35.048,16.61 34.069,17.59 34.069,18.811 L34.069,42.403 C34.069,43.624 35.048,44.61 36.257,44.61 L40.587,44.61 C41.8,44.61 42.775,43.624 42.775,42.403 L42.775,18.811 C42.783,17.595 41.8,16.61 40.587,16.61 L40.587,16.61 Z" id="Shape" fill="#FFFFFF"></path>
                                    <path d="M24.2,16.61 L19.872,16.61 C18.661,16.61 17.679,17.59 17.679,18.811 L17.679,42.403 C17.679,43.624 18.661,44.61 19.872,44.61 L24.2,44.61 C25.411,44.61 26.388,43.624 26.388,42.403 L26.388,18.811 C26.388,17.595 25.411,16.61 24.2,16.61 L24.2,16.61 Z" id="Shape" fill="#FFFFFF"></path>
                                </g>
                            </g>
                        </g>
                    </g>
                </g>
            </g>
        </g>
    </g>
</svg>