<?xml version="1.0" encoding="UTF-8" standalone="no"?>
<svg width="39px" height="39px" viewBox="0 0 39 39" version="1.1" xmlns="http://www.w3.org/2000/svg" xmlns:xlink="http://www.w3.org/1999/xlink">
    <!-- Generator: Sketch 41.2 (35397) - http://www.bohemiancoding.com/sketch -->
    <title>Previous</title>
    <desc>Created with Sketch.</desc>
    <defs></defs>
    <g id="05.100.00-OpenSource-Amplitude" stroke="none" stroke-width="1" fill="none" fill-rule="evenodd">
        <g id="HD_05.100.00-521Website_OpenSource-Amplitude" transform="translate(-482.000000, -782.000000)">
            <g id="Lead-in">
                <g id="Player" transform="translate(368.000000, 359.000000)">
                    <g id="Controllers/Status/Info" transform="translate(0.000000, 357.000000)">
                        <g id="Controls" transform="translate(114.000000, 56.000000)">
                            <g id="Previous" transform="translate(0.000000, 10.000000)">
                                <ellipse id="Oval-1" fill="#00A0FF" cx="19.5" cy="19.5" rx="19.5" ry="19.5"></ellipse>
                                <path d="M16.1305538,18.2541918 L16.1305538,12.3004631 C16.1305538,11.5809953 15.5536833,11 14.8406971,11 L12.2892675,11 C11.5768706,11 11,11.5809953 11,12.3004631 L11,26.1995678 C11,26.9208033 11.5768706,27.4988524 12.2892675,27.4988524 L14.8406971,27.4988524 C15.555451,27.4988524 16.1305538,26.9208033 16.1305538,26.1995678 L16.1305538,20.245839 L27.432857,27.2478341 C28.2913865,27.8093843 28.9919985,27.3986808 28.9919985,26.3274339 L28.9919985,12.1720078 C28.993177,11.1037071 28.2913865,10.6888788 27.432857,11.2521967 L16.1305538,18.2541918 Z" id="Shape" fill="#FFFFFF"></path>
                            </g>
                        </g>
                    </g>
                </g>
            </g>
        </g>
    </g>
</svg>