<?xml version="1.0" encoding="UTF-8" standalone="no"?>
<svg width="24px" height="19px" viewBox="0 0 24 19" version="1.1" xmlns="http://www.w3.org/2000/svg" xmlns:xlink="http://www.w3.org/1999/xlink">
    <!-- Generator: Sketch 41.2 (35397) - http://www.bohemiancoding.com/sketch -->
    <title>Fill 39</title>
    <desc>Created with Sketch.</desc>
    <defs></defs>
    <g id="05.100.00-OpenSource-Amplitude" stroke="none" stroke-width="1" fill="none" fill-rule="evenodd">
        <g id="HD_05.100.00-521Website_OpenSource-Amplitude" transform="translate(-427.000000, -792.000000)" fill="#607D8B">
            <g id="Lead-in">
                <g id="Player" transform="translate(368.000000, 359.000000)">
                    <g id="Controllers/Status/Info" transform="translate(0.000000, 357.000000)">
                        <path d="M75.9215,83.2656 C75.717875,83.4746 75.436625,83.6 75.126125,83.6 C74.50475,83.6 74.0015,83.0908 74.0015,82.46 C74.0015,82.1446 74.127125,81.8596 74.33075,81.6544 L75.035,80.94 L65.75,80.94 C63.264875,80.94 61.25,82.9806 61.25,85.5 L61.25,88.16 C61.25,88.7908 60.746375,89.3 60.125,89.3 C59.504,89.3 59,88.7908 59,88.16 L59,85.5 C59,81.7228 62.022125,78.66 65.75,78.66 L75.033125,78.66 L74.33075,77.9456 C74.127125,77.7404 74.0015,77.4554 74.0015,77.14 C74.0015,76.5092 74.50475,76 75.126125,76 C75.436625,76 75.717875,76.1292 75.9215,76.3344 L78.54575,78.9944 C78.749375,79.1996 78.875,79.4846 78.875,79.8 C78.875,80.1154 78.749375,80.4004 78.54575,80.6056 L75.9215,83.2656 L75.9215,83.2656 Z M76.25,92.34 L66.96725,92.34 L67.669625,93.0544 C67.872875,93.2596 67.998875,93.5446 67.998875,93.86 C67.998875,94.4908 67.49525,95 66.87425,95 C66.56375,95 66.2825,94.8708 66.078875,94.6656 L63.454625,92.0056 C63.251,91.8004 63.125,91.5154 63.125,91.2 C63.125,90.8846 63.251,90.5996 63.454625,90.3944 L66.078875,87.7344 C66.2825,87.5254 66.56375,87.4 66.87425,87.4 C67.49525,87.4 67.998875,87.9092 67.998875,88.54 C67.998875,88.8554 67.872875,89.1404 67.669625,89.3456 L66.965375,90.06 L76.25,90.06 C78.7355,90.06 80.75,88.0194 80.75,85.5 L80.75,82.84 C80.75,82.2092 81.253625,81.7 81.875,81.7 C82.496375,81.7 83,82.2092 83,82.84 L83,85.5 C83,89.2772 79.97825,92.34 76.25,92.34 L76.25,92.34 Z" id="Fill-39"></path>
                    </g>
                </g>
            </g>
        </g>
    </g>
</svg>