<?xml version="1.0" encoding="UTF-8" standalone="no"?>
<svg width="23px" height="20px" viewBox="0 0 23 20" version="1.1" xmlns="http://www.w3.org/2000/svg" xmlns:xlink="http://www.w3.org/1999/xlink">
    <!-- Generator: Sketch 41.2 (35397) - http://www.bohemiancoding.com/sketch -->
    <title>Fill 83</title>
    <desc>Created with Sketch.</desc>
    <defs></defs>
    <g id="05.100.00-OpenSource-Amplitude" stroke="none" stroke-width="1" fill="none" fill-rule="evenodd">
        <g id="HD_05.100.00-521Website_OpenSource-Amplitude" transform="translate(-637.000000, -792.000000)" fill="#607D8B">
            <g id="Lead-in">
                <g id="Player" transform="translate(368.000000, 359.000000)">
                    <g id="Controllers/Status/Info" transform="translate(0.000000, 357.000000)">
                        <path d="M285.614425,90.5505102 L287.682829,90.5505102 L287.682829,90.5468557 L288.319842,90.5468557 L287.645104,89.863455 C287.450012,89.6624548 287.329293,89.3883637 287.329293,89.0850361 C287.329293,88.4820355 287.811813,87.9886714 288.407148,87.9886714 C288.704636,87.9886714 288.9741,88.1129261 289.169192,88.3102717 L291.684188,90.868456 C291.87928,91.0694562 292,91.3435473 292,91.6432204 C292,91.9465479 291.87928,92.2206391 291.684188,92.4216393 L289.169192,94.9798235 C288.9741,95.1771692 288.704636,95.2977693 288.407148,95.2977693 C287.811813,95.2977693 287.329293,94.8080597 287.329293,94.2014046 C287.329293,93.9017316 287.450012,93.6276404 287.645104,93.4266402 L288.318045,92.7432396 L285.167833,92.7432396 C284.870345,92.7432396 284.600881,92.6189849 284.405789,92.4216393 L280.181673,88.1238897 L281.705761,86.574361 L285.614425,90.5505102 L285.614425,90.5505102 Z M277.132779,85.0248322 L273.224475,81.0486829 L270.077856,81.0486829 C269.482879,81.0486829 269,80.5589734 269,79.9523183 C269,79.3456631 269.482879,78.8559536 270.077856,78.8559536 L273.670707,78.8559536 C273.968555,78.8559536 274.238019,78.9802082 274.43311,79.1775539 L278.657226,83.4753034 L277.132779,85.0248322 L277.132779,85.0248322 Z M289.169192,83.2889215 C288.9741,83.4862671 288.704636,83.6068672 288.407148,83.6068672 C287.811813,83.6068672 287.329293,83.1171577 287.329293,82.5105025 C287.329293,82.2108295 287.450012,81.9367383 287.645104,81.7357381 L288.319842,81.0486829 L285.614425,81.0486829 L274.43311,92.4216393 C274.238019,92.6189849 273.968555,92.7432396 273.670707,92.7432396 L270.077856,92.7432396 C269.482879,92.7432396 269,92.25353 269,91.6468749 C269,91.0402198 269.482879,90.5505102 270.077856,90.5505102 L273.224475,90.5505102 L284.405789,79.1775539 C284.600881,78.9802082 284.870345,78.8559536 285.167833,78.8559536 L288.318045,78.8559536 L287.645104,78.1725529 C287.450012,77.9715527 287.329293,77.6974616 287.329293,77.394134 C287.329293,76.7911334 287.811813,76.2977693 288.407148,76.2977693 C288.704636,76.2977693 288.9741,76.422024 289.169192,76.6193696 L291.684188,79.1775539 C291.87928,79.3785541 292,79.6526452 292,79.9523183 C292,80.2556458 291.87928,80.529737 291.684188,80.7307372 L289.169192,83.2889215 L289.169192,83.2889215 Z" id="Fill-83"></path>
                    </g>
                </g>
            </g>
        </g>
    </g>
</svg>