<?xml version="1.0" encoding="UTF-8"?>
<svg width="18px" height="18px" viewBox="0 0 18 18" version="1.1" xmlns="http://www.w3.org/2000/svg" xmlns:xlink="http://www.w3.org/1999/xlink">
    <!-- Generator: Sketch 46.2 (44496) - http://www.bohemiancoding.com/sketch -->
    <title>Shape</title>
    <desc>Created with Sketch.</desc>
    <defs></defs>
    <g id="Screens" stroke="none" stroke-width="1" fill="none" fill-rule="evenodd">
        <g id="Track-Listing" transform="translate(-11.000000, -431.000000)" fill="#FFFFFF">
            <g id="#8" transform="translate(0.000000, 416.000000)">
                <g id="Volume-Up" transform="translate(8.000000, 12.000000)">
                    <path d="M3,9 L3,15 L7,15 L12,20 L12,4 L7,9 L3,9 Z M16.5,12 C16.5,10.23 15.48,8.71 14,7.97 L14,16.02 C15.48,15.29 16.5,13.77 16.5,12 Z M14,3.23 L14,5.29 C16.89,6.15 19,8.83 19,12 C19,15.17 16.89,17.85 14,18.71 L14,20.77 C18.01,19.86 21,16.28 21,12 C21,7.72 18.01,4.14 14,3.23 L14,3.23 Z" id="Shape"></path>
                </g>
            </g>
        </g>
    </g>
</svg>