<?xml version="1.0" encoding="UTF-8"?>
<svg width="60px" height="60px" viewBox="0 0 60 60" version="1.1" xmlns="http://www.w3.org/2000/svg" xmlns:xlink="http://www.w3.org/1999/xlink">
    <!-- Generator: Sketch 46.2 (44496) - http://www.bohemiancoding.com/sketch -->
    <title>Pause</title>
    <desc>Created with Sketch.</desc>
    <defs></defs>
    <g id="Screens" stroke="none" stroke-width="1" fill="none" fill-rule="evenodd">
        <g id="Player" transform="translate(-158.000000, -510.000000)">
            <g id="Controls" transform="translate(24.000000, 504.000000)">
                <g id="Pause" transform="translate(128.000000, 0.000000)">
                    <polygon id="Shape" points="0 0 72 0 72 72 0 72"></polygon>
                    <path d="M27,48 L33,48 L33,24 L27,24 L27,48 Z M36,6 C19.44,6 6,19.44 6,36 C6,52.56 19.44,66 36,66 C52.56,66 66,52.56 66,36 C66,19.44 52.56,6 36,6 Z M36,60 C22.77,60 12,49.23 12,36 C12,22.77 22.77,12 36,12 C49.23,12 60,22.77 60,36 C60,49.23 49.23,60 36,60 Z M39,48 L45,48 L45,24 L39,24 L39,48 Z" id="Shape" fill="#FFFFFF"></path>
                </g>
            </g>
        </g>
    </g>
</svg>