<?xml version="1.0" encoding="UTF-8"?>
<svg width="18px" height="18px" viewBox="0 0 18 18" version="1.1" xmlns="http://www.w3.org/2000/svg" xmlns:xlink="http://www.w3.org/1999/xlink">
    <!-- Generator: Sketch 50.2 (55047) - http://www.bohemiancoding.com/sketch -->
    <title>cross</title>
    <desc>Created with Sketch.</desc>
    <defs></defs>
    <g id="Page-1" stroke="none" stroke-width="1" fill="none" fill-rule="evenodd">
        <g id="close" fill="#E1E1E1" fill-rule="nonzero">
            <path d="M9,6.19404914 L3.39156826,0.585617406 C2.61437574,-0.191575117 1.35698937,-0.192694499 0.582147434,0.582147434 C-0.198096555,1.36239142 -0.19114094,2.61480992 0.585617406,3.39156826 L6.19404914,9 L0.585617406,14.6084317 C-0.191575117,15.3856243 -0.192694499,16.6430106 0.582147434,17.4178526 C1.36239142,18.1980966 2.61480992,18.1911409 3.39156826,17.4143826 L9,11.8059509 L14.6084317,17.4143826 C15.3856243,18.1915751 16.6430106,18.1926945 17.4178526,17.4178526 C18.1980966,16.6376086 18.1911409,15.3851901 17.4143826,14.6084317 L11.8059509,9 L17.4143826,3.39156826 C18.1915751,2.61437574 18.1926945,1.35698937 17.4178526,0.582147434 C16.6376086,-0.198096555 15.3851901,-0.19114094 14.6084317,0.585617406 L9,6.19404914 Z" id="cross"></path>
        </g>
    </g>
</svg>