<?xml version="1.0" encoding="UTF-8"?>
<svg width="20px" height="16px" viewBox="0 0 20 16" version="1.1" xmlns="http://www.w3.org/2000/svg" xmlns:xlink="http://www.w3.org/1999/xlink">
    <!-- Generator: Sketch 50.2 (55047) - http://www.bohemiancoding.com/sketch -->
    <title>shuffle-off</title>
    <desc>Created with Sketch.</desc>
    <defs></defs>
    <g id="Page-1" stroke="none" stroke-width="1" fill="none" fill-rule="evenodd">
        <g id="shuffle-off" fill="#E1E1E1" fill-rule="nonzero">
            <path d="M6.55374545,7.0677442 C6.64843636,6.945559 7.76683636,5.71226574 8.208,5.16588637 C6.66501818,3.32598459 5.21869091,2.28589932 2.54378182,2.28589932 L0,2.28589932 L0,4.57158277 L2.54356364,4.57158277 C4.44043636,4.57158277 5.19665455,5.37398977 6.55374545,7.0677442 Z M16.1709818,11.428849 L15.0700364,11.428849 C13.1886545,11.428849 12.4014545,10.515914 11.0454545,8.8204326 C11.0701091,8.7902101 10.1013818,10.0692689 9.5757818,10.7233698 C11.1133091,12.562624 12.408,13.7143166 15.0702545,13.7143166 L16.1712,13.7143166 L16.1712,16 L19.6363636,12.5649986 L16.1709818,9.1429497 L16.1709818,11.428849 Z M15.4265455,4.57158277 L16.1709818,4.57158277 L16.1709818,6.8572662 L19.6363636,3.43435379 L16.1709818,0 L16.1709818,2.28568345 L15.4265455,2.28568345 C11.9613818,2.28568345 9.888,4.78400367 8.0578909,7.1819421 C6.34843636,9.4229394 4.87069091,11.4286331 2.56690909,11.4286331 L0,11.4286331 L0,13.7143166 L2.56690909,13.7143166 C6.00785455,13.7143166 8.0727273,11.0312074 9.8949818,8.6427675 C11.6118545,6.3896812 13.0961455,4.57158277 15.4265455,4.57158277 Z" id="shuffle-on"></path>
        </g>
    </g>
</svg>