<?xml version="1.0" encoding="UTF-8"?>
<svg width="16px" height="14px" viewBox="0 0 16 14" version="1.1" xmlns="http://www.w3.org/2000/svg" xmlns:xlink="http://www.w3.org/1999/xlink">
    <!-- Generator: Sketch 50.2 (55047) - http://www.bohemiancoding.com/sketch -->
    <title>Group</title>
    <desc>Created with Sketch.</desc>
    <defs></defs>
    <g id="Page-1" stroke="none" stroke-width="1" fill="none" fill-rule="evenodd">
        <g id="Spotify-Mini-Player-Concept" transform="translate(-354.000000, -494.000000)" fill="#FFFFFF">
            <g id="Player" transform="translate(284.000000, 410.000000)">
                <g id="Controls" transform="translate(70.000000, 66.000000)">
                    <g id="Group" transform="translate(0.000000, 18.000000)">
                        <g id="Shape">
                            <path d="M12.4167125,4.01266667 L11.813309,4.62133333 C11.4690737,4.96844444 11.4690737,5.53133333 11.813309,5.87844444 C11.9854267,6.052 12.2110969,6.13866667 12.4365468,6.13866667 C12.6619967,6.13866667 12.8876669,6.05177778 13.0597846,5.87844444 L15.1683911,3.75244444 C15.2093819,3.71111111 15.2459652,3.66555556 15.2781408,3.61666667 C15.2918045,3.59644444 15.3010605,3.57422222 15.3125203,3.55311111 C15.3288285,3.52355556 15.3462386,3.49488889 15.3592411,3.46355556 C15.3700398,3.43733333 15.3759901,3.40977778 15.3841442,3.38266667 C15.392739,3.35422222 15.4033173,3.32688889 15.4092676,3.29733333 C15.4180829,3.25155556 15.4213886,3.20533333 15.4229312,3.15888889 C15.4235924,3.14688889 15.4266777,3.13555556 15.4266777,3.12377778 C15.4266777,3.10977778 15.4231516,3.09644444 15.4224905,3.08244444 C15.420507,3.03844444 15.4178625,2.99422222 15.4092676,2.95088889 C15.4028766,2.91866667 15.3916371,2.88866667 15.3819403,2.858 C15.3744474,2.83377778 15.3691582,2.80888889 15.3592411,2.78511111 C15.3449163,2.74955556 15.3255228,2.71711111 15.3067904,2.684 C15.2968732,2.66666667 15.2896007,2.64844444 15.2785816,2.632 C15.2457448,2.58222222 15.20828,2.53577778 15.1664076,2.49377778 L13.0593438,0.369333333 C12.7151085,0.0222222222 12.1571036,0.0222222222 11.8128683,0.369333333 C11.468633,0.716444444 11.468633,1.27933333 11.8128683,1.62644444 L12.4162717,2.23511111 L11.2019718,2.23511111 C8.60566197,2.23511111 7.15643579,4.50644444 5.87756421,6.51022222 C4.74238111,8.28933333 3.67000663,9.96955556 2.0358807,9.96955556 L0.992376139,9.96955556 C0.505554267,9.96955556 0.110851698,10.3675556 0.110851698,10.8584444 C0.110851698,11.3493333 0.505554267,11.7473333 0.992376139,11.7473333 L2.0358807,11.7473333 C4.63219056,11.7473333 6.08141674,9.476 7.36028832,7.47222222 C8.49591218,5.69288889 9.56828666,4.01266667 11.2024126,4.01266667 L12.4167125,4.01266667 Z"></path>
                            <path d="M0.992816901,4.01933333 L2.03632146,4.01933333 C2.90947142,4.01933333 3.66758244,4.46911111 4.49445236,5.47777778 C4.66877382,5.69044444 4.92066943,5.80022222 5.17432809,5.80022222 C5.37200994,5.80022222 5.57101408,5.73355556 5.73541839,5.59644444 C6.11072742,5.28355556 6.16339851,4.72333333 5.85310191,4.34488889 C5.11284176,3.442 3.91154432,2.24155556 2.03610108,2.24155556 L0.99259652,2.24155556 C0.505774648,2.24155556 0.11107208,2.63955556 0.11107208,3.13044444 C0.11107208,3.62133333 0.505995029,4.01933333 0.992816901,4.01933333 L0.992816901,4.01933333 Z"></path>
                            <path d="M15.3594615,11.2035556 C15.3691582,11.1804444 15.3740066,11.1557778 15.38172,11.132 C15.3914167,11.1006667 15.4030969,11.0704444 15.409488,11.0377778 C15.4178625,10.9948889 15.420507,10.9508889 15.4224905,10.9073333 C15.423372,10.8931111 15.4268981,10.8795556 15.4268981,10.8651111 C15.4268981,10.8533333 15.4238128,10.8426667 15.423372,10.8313333 C15.4216089,10.7844444 15.418744,10.7377778 15.4097084,10.6917778 C15.4039785,10.6624444 15.3934002,10.6353333 15.3848053,10.6073333 C15.3766512,10.58 15.3707009,10.552 15.3596819,10.5255556 C15.3468998,10.4942222 15.3294896,10.466 15.3134018,10.4371111 C15.3017216,10.4153333 15.2922452,10.3931111 15.2785816,10.3722222 C15.246406,10.3235556 15.2098227,10.278 15.1688318,10.2366667 L15.1688318,10.2366667 L13.0602254,8.11066667 C12.7159901,7.76355556 12.1579851,7.76355556 11.8137498,8.11066667 C11.4695145,8.45777778 11.4695145,9.02066667 11.8137498,9.36755556 L12.417594,9.97644444 L11.2028534,9.97644444 C10.3268384,9.97644444 9.56586247,9.52311111 8.7348053,8.50622222 C8.42539022,8.12733333 7.86958906,8.07333333 7.49383927,8.38555556 C7.11808948,8.69777778 7.06453687,9.258 7.37417233,9.63688889 C8.11707705,10.546 9.32234134,11.7542222 11.2028534,11.7542222 L12.4171533,11.7542222 L11.8137498,12.3628889 C11.4695145,12.71 11.4695145,13.2728889 11.8137498,13.6197778 C11.9858674,13.7933333 12.2115377,13.8802222 12.4369876,13.8802222 C12.6624374,13.8802222 12.8881077,13.7933333 13.0602254,13.6197778 L15.166628,11.4957778 C15.2087208,11.4535556 15.246406,11.4068889 15.2796835,11.3568889 C15.2900414,11.3408889 15.2968732,11.3235556 15.3063496,11.3071111 C15.325082,11.2733333 15.3449163,11.24 15.3594615,11.2035556 L15.3594615,11.2035556 Z"></path>
                        </g>
                    </g>
                </g>
            </g>
        </g>
    </g>
</svg>