<?xml version="1.0" encoding="UTF-8"?>
<svg width="16px" height="18px" viewBox="0 0 16 18" version="1.1" xmlns="http://www.w3.org/2000/svg" xmlns:xlink="http://www.w3.org/1999/xlink">
    <!-- Generator: Sketch 50.2 (55047) - http://www.bohemiancoding.com/sketch -->
    <title>Group</title>
    <desc>Created with Sketch.</desc>
    <defs></defs>
    <g id="Page-1" stroke="none" stroke-width="1" fill="none" fill-rule="evenodd">
        <g id="Spotify-Mini-Player-Concept" transform="translate(-559.000000, -492.000000)" fill="#2EBD59" stroke="#2EBD59">
            <g id="Player" transform="translate(284.000000, 410.000000)">
                <g id="Controls" transform="translate(70.000000, 66.000000)">
                    <g id="Group" transform="translate(206.000000, 17.000000)">
                        <path d="M11.2471655,7.11169161 C11.1879546,7.11169161 11.1281633,7.09369615 11.0770794,7.05596372 C10.9470476,6.9619229 10.9191837,6.78022676 11.013805,6.65077551 L13.2109932,3.62811791 L11.013805,0.606040816 C10.9191837,0.476589569 10.9482086,0.294893424 11.0770794,0.200852608 C11.2076916,0.106231293 11.3888073,0.134675737 11.4828481,0.264707483 L13.8048435,3.45745125 C13.8785669,3.55903855 13.8785669,3.69661678 13.8048435,3.79820408 L11.4828481,6.99094785 C11.4259592,7.07047619 11.3365624,7.11169161 11.2471655,7.11169161 L11.2471655,7.11169161 Z" id="Shape"></path>
                        <path d="M0.507936508,8.27268934 C0.347718821,8.27268934 0.217687075,8.1426576 0.217687075,7.98243991 L0.217687075,6.82144218 C0.217687075,4.90057143 1.77980952,3.33844898 3.70068027,3.33844898 L13.569161,3.33844898 C13.7293787,3.33844898 13.8594104,3.46848073 13.8594104,3.62869841 C13.8594104,3.7889161 13.7293787,3.91894785 13.569161,3.91894785 L3.70068027,3.91894785 C2.1002449,3.91894785 0.798185941,5.2210068 0.798185941,6.82144218 L0.798185941,7.98243991 C0.798185941,8.1426576 0.668154195,8.27268934 0.507936508,8.27268934 L0.507936508,8.27268934 Z" id="Shape"></path>
                        <path d="M2.82993197,15.8554558 C2.73995465,15.8554558 2.65171882,15.8142404 2.59482993,15.735873 L0.272834467,12.5431293 C0.199111111,12.441542 0.199111111,12.3039637 0.272834467,12.2023764 L2.59482993,9.00963265 C2.68887075,8.87960091 2.87056689,8.85115646 3.00001814,8.94577778 C3.13004989,9.03981859 3.15849433,9.22151474 3.06387302,9.35154649 L0.866104308,12.3730431 L3.06387302,15.3957007 C3.15849433,15.5257324 3.12946939,15.7074286 3.00001814,15.8014694 C2.94951474,15.8380408 2.89030385,15.8554558 2.82993197,15.8554558 L2.82993197,15.8554558 Z" id="Shape"></path>
                        <path d="M10.9569161,12.662712 L0.798185941,12.662712 C0.637968254,12.662712 0.507936508,12.5326803 0.507936508,12.3724626 C0.507936508,12.2122449 0.637968254,12.0822132 0.798185941,12.0822132 L10.9569161,12.0822132 C12.4702766,12.0822132 13.569161,10.861424 13.569161,9.17971882 L13.569161,8.01872109 C13.569161,7.8579229 13.6997732,7.72847166 13.8594104,7.72847166 C14.0196281,7.72847166 14.1496599,7.8579229 14.1496599,8.01872109 L14.1496599,9.17971882 C14.1496599,11.1986939 12.8075465,12.662712 10.9569161,12.662712 L10.9569161,12.662712 Z" id="Shape"></path>
                    </g>
                </g>
            </g>
        </g>
    </g>
</svg>