<?xml version="1.0" encoding="UTF-8"?>
<svg width="18px" height="16px" viewBox="0 0 18 16" version="1.1" xmlns="http://www.w3.org/2000/svg" xmlns:xlink="http://www.w3.org/1999/xlink">
    <!-- Generator: Sketch 50.2 (55047) - http://www.bohemiancoding.com/sketch -->
    <title>repeat-off</title>
    <desc>Created with Sketch.</desc>
    <defs></defs>
    <g id="Page-1" stroke="none" stroke-width="1" fill="none" fill-rule="evenodd">
        <g id="repeat-off" fill="#E1E1E1" fill-rule="nonzero">
            <path d="M15.684,8.8037383 C15.6994,8.924421 15.7094,9.0449004 15.7094,9.1698497 C15.7094,10.6005689 13.8658,11.4286875 12.976,11.4286875 L4.5,11.4286875 L4.5,9.1430313 L0,12.5715156 L4.5,16 L4.5,13.7143438 L13.2384,13.7143438 C15.8048,13.7143438 18,11.2210484 18,8.5963023 C18,8.0650142 17.9122,7.6956522 17.7384,7.1905729 L15.684,8.8037383 Z M2.3166,7.1960585 C2.3006,7.0759854 2.2908,6.9548964 2.2908,6.8305567 C2.2908,5.39983746 4.1344,4.57110931 5.0242,4.57110931 L13.5,4.57110931 L13.5,6.8567655 L18,3.42848436 L13.5,0 L13.5,2.28565624 L4.761,2.28565624 C2.1952,2.28565624 0,4.77935798 0,7.4043072 C0,7.9343763 0.0878,8.3037383 0.261,8.8084112 L2.3166,7.1960585 Z"></path>
        </g>
    </g>
</svg>