<?xml version="1.0" encoding="UTF-8"?>
<svg width="21px" height="26px" viewBox="0 0 21 26" version="1.1" xmlns="http://www.w3.org/2000/svg" xmlns:xlink="http://www.w3.org/1999/xlink">
    <!-- Generator: Sketch 52.1 (67048) - http://www.bohemiancoding.com/sketch -->
    <title>Pause</title>
    <desc>Created with Sketch.</desc>
    <g id="Page-1" stroke="none" stroke-width="1" fill="none" fill-rule="evenodd">
        <g id="2.-Play-state" transform="translate(-177.000000, -514.000000)" fill="#FFFFFF" fill-rule="nonzero">
            <g id="Buttons_pause" transform="translate(91.000000, 514.000000)">
                <path d="M86,2.16666667 C86,0.970049709 87.3431458,1.60365548e-15 89,0 C90.6568542,-1.60365548e-15 92,0.970049709 92,2.16666667 L92,23.8333333 C92,25.0299503 90.6568542,26 89,26 C87.3431458,26 86,25.0299503 86,23.8333333 L86,2.16666667 Z M101,2.16666667 C101,0.970049709 102.343146,1.60365548e-15 104,0 C105.656854,-1.60365548e-15 107,0.970049709 107,2.16666667 L107,23.8333333 C107,25.0299503 105.656854,26 104,26 C102.343146,26 101,25.0299503 101,23.8333333 L101,2.16666667 Z" id="Pause"></path>
            </g>
        </g>
    </g>
</svg>